<svg width="70" height="70" viewBox="0 0 70 70" fill="none" xmlns="http://www.w3.org/2000/svg">
<g id="bald-man-with-tie-and-glasses 2">
<g id="Group">
<path id="Vector" d="M32.7837 40.8065V43.282H37.2163V40.8053C36.4838 40.9442 35.7443 41.0223 35.0001 41.0223C34.2536 41.0223 33.5165 40.9442 32.7837 40.8065Z" fill="#F1ECFE"/>
<path id="Vector_2" d="M55.7384 37.2593L47.5624 34.8203C47.5624 34.8203 47.5624 34.8203 47.5624 34.8214L46.6576 34.5526C46.0719 35.2864 45.4564 35.9558 44.8226 36.5736L47.1512 37.2672C45.6563 45.5027 42.8223 54.5562 39.3337 58.9932L37.2302 44.923H32.7677L30.6643 58.9874C27.1781 54.5492 24.3439 45.4994 22.8511 37.266L25.1776 36.5725C24.5414 35.9558 23.9282 35.2852 23.3402 34.5514L14.2618 37.2591C12.2269 37.8643 10.8351 39.7325 10.8351 41.8522V45.8358C10.8351 59.1815 21.6522 69.9996 35.0003 69.9996C35.0026 69.9996 35.0026 69.9996 35.0026 69.9996C48.3482 69.9996 59.1653 59.1815 59.1653 45.8358V41.8522C59.165 39.7325 57.7733 37.8643 55.7384 37.2593Z" fill="#F1ECFE"/>
<path id="Vector_3" d="M21.9484 27.5699C24.4793 33.0001 29.1369 38.5603 35.0001 38.5603C40.8567 38.5603 45.514 33.0093 48.0448 27.5823C50.0522 27.1886 51.9561 25.3215 52.845 22.7709C54.0462 19.3121 53.0448 15.9086 50.5688 14.9189C49.7306 6.48114 43.0523 0 35.0001 0C26.9458 0 20.2675 6.48114 19.4289 14.919C18.2028 15.4126 17.2795 16.5495 16.8776 18.0654C16.5009 19.4995 16.5995 21.1715 17.1576 22.7709C18.0373 25.2975 19.909 27.1541 21.9484 27.5699ZM43.3321 5.73236L43.4562 6.94606C43.5712 8.09794 43.8903 9.21854 44.4002 10.2578L47.3997 16.3909C46.8324 16.8019 46.3524 17.2488 45.9643 17.683V17.6795C45.9643 17.3397 45.6864 17.064 45.3488 17.064H36.9592C36.6194 17.064 36.3439 17.3397 36.3439 17.6795V18.9609C35.4689 18.7004 34.5295 18.7004 33.6547 18.9621V17.6795C33.6547 17.3397 33.3791 17.064 33.0391 17.064H24.6498C24.3119 17.064 24.0363 17.3385 24.0341 17.6783C23.6483 17.2454 23.1684 16.8 22.6032 16.3909L25.6027 10.2578C26.1126 9.21854 26.432 8.09794 26.5467 6.94606L26.673 5.72796C28.9515 3.71041 31.8313 2.46206 35.0006 2.46206C38.1672 2.46206 41.0517 3.71247 43.3321 5.73236ZM38.174 20.0185C37.9903 19.8336 37.786 19.6775 37.5723 19.5329V18.2949H44.7331V20.594C44.7331 21.4206 44.0624 22.0926 43.2358 22.0926H39.0721C38.4014 22.0926 37.8547 21.6445 37.6619 21.037C37.6917 21.0417 37.7101 21.0693 37.7399 21.0693C37.896 21.0693 38.0546 21.0084 38.1738 20.8889C38.4154 20.6477 38.4154 20.2586 38.174 20.0185ZM31.8285 20.8889C31.9686 21.0278 32.1523 21.0613 32.336 21.0405C32.1432 21.6456 31.5941 22.0924 30.9258 22.0924H26.7621C25.9352 22.0924 25.2648 21.4206 25.2648 20.5938V18.2948H32.4232V19.5371C32.2144 19.6809 32.0099 19.8346 31.8285 20.0182C31.5874 20.2586 31.5874 20.6477 31.8285 20.8889ZM19.259 18.6933C19.3806 18.2363 19.6886 17.4301 20.4052 17.1824C20.481 17.1558 20.6327 17.1398 20.7083 17.1331C20.7131 17.1326 20.718 17.132 20.7228 17.1314C21.1938 17.0773 21.6668 17.208 22.0433 17.4959C23.0855 18.2935 23.7943 19.3033 24.0337 19.6798V20.594C24.0337 22.0993 25.2579 23.3234 26.7621 23.3234H30.9258C32.4324 23.3234 33.6543 22.0993 33.6543 20.594V20.269C34.5083 19.8957 35.4915 19.8934 36.3435 20.2631V20.594C36.3435 22.0993 37.5651 23.3234 39.0719 23.3234H43.2357C44.7398 23.3234 45.964 22.0993 45.964 20.594V19.6868C46.203 19.3143 46.9188 18.2888 47.974 17.4849C48.4072 17.1549 48.9667 17.0344 49.4971 17.1576C49.5446 17.1686 49.5797 17.1771 49.5951 17.1824C50.6837 17.5613 51.3335 19.6191 50.5205 21.9616C49.788 24.0631 48.2974 25.1963 47.2386 25.1963C46.6506 25.2307 46.2878 25.4787 46.0882 25.9357C43.9452 30.8494 39.9078 36.0994 35 36.0994C30.0897 36.0994 26.0522 30.8494 23.9097 25.9357C23.7144 25.4856 23.2207 25.1963 22.7294 25.1963C21.7004 25.1963 20.2121 24.0631 19.482 21.9616C19.0891 20.835 19.0087 19.6431 19.259 18.6933Z" fill="#F1ECFE"/>
</g>
</g>
</svg>
