<svg xmlns="http://www.w3.org/2000/svg" width="40" height="40" viewBox="0 0 40 40" fill="none">
<path d="M33.0945 17.0508V12.1707C33.0945 10.3739 31.638 8.91732 29.8412 8.91732H10.3209C8.52409 8.91732 7.0675 10.3739 7.0675 12.1707V17.0508M33.0945 17.0508V31.691C33.0945 33.4878 31.638 34.9443 29.8412 34.9443H10.3209C8.52409 34.9443 7.0675 33.4878 7.0675 31.691V17.0508M33.0945 17.0508H7.0675M13.5743 5.66394V12.1707M26.5878 5.66394V12.1707" stroke="#F1ECFE" stroke-width="4" stroke-linecap="round"/>
<path d="M14.3876 20.3041H11.1343C10.6851 20.3041 10.3209 20.6682 10.3209 21.1174V24.3708C10.3209 24.82 10.6851 25.1841 11.1343 25.1841H14.3876C14.8368 25.1841 15.201 24.82 15.201 24.3708V21.1174C15.201 20.6682 14.8368 20.3041 14.3876 20.3041Z" fill="#F1ECFE"/>
<path d="M21.7077 20.3041H18.4543C18.0051 20.3041 17.641 20.6682 17.641 21.1174V24.3708C17.641 24.82 18.0051 25.1841 18.4543 25.1841H21.7077C22.1569 25.1841 22.5211 24.82 22.5211 24.3708V21.1174C22.5211 20.6682 22.1569 20.3041 21.7077 20.3041Z" fill="#F1ECFE"/>
<path d="M29.0279 20.3041H25.7745C25.3253 20.3041 24.9612 20.6682 24.9612 21.1174V24.3708C24.9612 24.82 25.3253 25.1841 25.7745 25.1841H29.0279C29.4771 25.1841 29.8412 24.82 29.8412 24.3708V21.1174C29.8412 20.6682 29.4771 20.3041 29.0279 20.3041Z" fill="#F1ECFE"/>
</svg>