<svg xmlns="http://www.w3.org/2000/svg" width="37" height="37" viewBox="0 0 45 54" fill="none">
    <path fill-rule="evenodd" clip-rule="evenodd" d="M42 41.4783V8.08696L39.9 6H12.6L10.5 8.08696V16.4348H2.1L0 18.5217V51.913L2.1 54H29.4L31.5 51.913V43.5652H39.9L42 41.4783ZM31.5 39.3913V18.5217L29.4 16.4348H14.7V10.1739H37.8V39.3913H31.5ZM4.2 20.6087H27.3V49.8261H4.2V20.6087Z" fill="#F1ECFE"/>
    <path d="M40.225 9.375V9.525H40.375H43.0375V10.2504L38.5 14.7879L33.9625 10.2504V9.525H36.625H36.775V9.375V3.9H40.225V9.375Z" fill="#F1ECFE" stroke="#7749F8" stroke-width="0.3"/>
    <path d="M32.925 1.825V0.0500013L44.075 0.05V1.825H32.925Z" fill="#F1ECFE" stroke="#979292" stroke-width="0.1"/>
</svg>
