<svg xmlns="http://www.w3.org/2000/svg" width="29" height="29" viewBox="0 0 29 29" fill="none">
<path d="M20.3634 13.7383L20.0099 14.0918L20.3634 14.4454L26.6796 20.7615C28.2284 22.3103 28.2291 24.821 26.6796 26.3705C25.13 27.92 22.6194 27.9194 21.0705 26.3705L14.7544 20.0544L14.4009 19.7009L14.0473 20.0544L7.73121 26.3705C6.18171 27.92 3.67104 27.9194 2.1222 26.3705C0.573373 24.8217 0.572696 22.311 2.12221 20.7615L8.43832 14.4454L8.79187 14.0918L8.43832 13.7383L2.1222 7.42218C0.573371 5.87335 0.572698 3.36268 2.1222 1.81317C3.67171 0.263667 6.18238 0.264341 7.73121 1.81317L14.0473 8.12929L14.4009 8.48284L14.7544 8.12929L21.0705 1.81317C22.6201 0.263667 25.1307 0.264342 26.6796 1.81317C28.2284 3.36201 28.2291 5.87268 26.6796 7.42218L20.3634 13.7383Z" fill="#565454" stroke="black"/>
</svg>