<svg width="36" height="36" viewBox="0 0 36 36" fill="none" xmlns="http://www.w3.org/2000/svg">
<path d="M9 0H21.375V2.25H9C8.40326 2.25 7.83097 2.48705 7.40901 2.90901C6.98705 3.33097 6.75 3.90326 6.75 4.5V31.5C6.75 32.0967 6.98705 32.669 7.40901 33.091C7.83097 33.5129 8.40326 33.75 9 33.75H27C27.5967 33.75 28.169 33.5129 28.591 33.091C29.0129 32.669 29.25 32.0967 29.25 31.5V10.125H31.5V31.5C31.5 32.6935 31.0259 33.8381 30.182 34.682C29.3381 35.5259 28.1935 36 27 36H9C7.80653 36 6.66193 35.5259 5.81802 34.682C4.97411 33.8381 4.5 32.6935 4.5 31.5V4.5C4.5 3.30653 4.97411 2.16193 5.81802 1.31802C6.66193 0.474106 7.80653 0 9 0V0Z" fill="#F1ECFE"/>
<path d="M21.375 6.75V0L31.5 10.125H24.75C23.8549 10.125 22.9964 9.76942 22.3635 9.13649C21.7306 8.50355 21.375 7.64511 21.375 6.75Z" fill="#F1ECFE"/>
</svg>
