<svg xmlns="http://www.w3.org/2000/svg" width="36" height="36" viewBox="0 0 52 52" fill="none">
<path fill-rule="evenodd" clip-rule="evenodd" d="M25.8613 0.0207523H26.1388C31.7174 0.0207281 36.0891 0.0207039 39.5003 0.479315C42.9916 0.948728 45.7469 1.9283 47.9093 4.09076C50.0717 6.25322 51.0512 9.00826 51.5208 12.4997C51.9792 15.9108 51.9792 20.2826 51.9792 25.8612V26.1386C51.9792 31.7173 51.9792 36.089 51.5208 39.5001C51.0512 42.9915 50.0717 45.7467 47.9093 47.9092C45.7469 50.0716 42.9916 51.0511 39.5003 51.5206C36.0891 51.9791 31.7174 51.9791 26.1388 51.9791H25.8613C20.2828 51.9791 15.9109 51.9791 12.4998 51.5206C9.00839 51.0511 6.25334 50.0716 4.09088 47.9092C1.92842 45.7467 0.94885 42.9915 0.479437 39.5001C0.020826 36.089 0.0208502 31.7173 0.0208744 26.1386V25.8612C0.0208502 20.2826 0.020826 15.9108 0.479437 12.4997C0.94885 9.00826 1.92842 6.25322 4.09088 4.09076C6.25334 1.9283 9.00839 0.948728 12.4998 0.479315C15.9109 0.0207039 20.2828 0.0207281 25.8613 0.0207523ZM12.9829 4.07198C9.89337 4.48736 8.0308 5.27734 6.65414 6.65402C5.27746 8.03067 4.48748 9.89325 4.0721 12.9827C3.64972 16.1244 3.64587 20.2525 3.64587 25.9999C3.64587 31.7472 3.64972 35.8754 4.0721 39.0171C4.48748 42.1065 5.27746 43.969 6.65414 45.3458C8.0308 46.7226 9.89337 47.5126 12.9829 47.9278C16.1245 48.3502 20.2527 48.3541 26 48.3541C31.7474 48.3541 35.8755 48.3502 39.0172 47.9278C42.1066 47.5126 43.9692 46.7226 45.3459 45.3458C46.7227 43.969 47.5127 42.1065 47.9279 39.0171C48.3503 35.8754 48.3542 31.7472 48.3542 25.9999C48.3542 20.2525 48.3503 16.1244 47.9279 12.9827C47.5127 9.89325 46.7227 8.03067 45.3459 6.65402C43.9692 5.27734 42.1066 4.48736 39.0172 4.07198C35.8755 3.64959 31.7474 3.64575 26 3.64575C20.2527 3.64575 16.1245 3.64959 12.9829 4.07198ZM22.4166 12.6041C23.1416 13.2944 23.1696 14.4417 22.4792 15.1666L15.5744 22.4165C15.2323 22.7758 14.758 22.9791 14.262 22.9791C13.7659 22.9791 13.2915 22.7758 12.9494 22.4165L10.1875 19.5166C9.49718 18.7917 9.52516 17.6444 10.25 16.9541C10.9749 16.2637 12.1222 16.2917 12.8125 17.0166L14.262 18.5385L19.8542 12.6666C20.5446 11.9417 21.6919 11.9137 22.4166 12.6041ZM26.6042 18.7499C26.6042 17.7489 27.4157 16.9374 28.4167 16.9374H40.5C41.501 16.9374 42.3125 17.7489 42.3125 18.7499C42.3125 19.7509 41.501 20.5624 40.5 20.5624H28.4167C27.4157 20.5624 26.6042 19.7509 26.6042 18.7499ZM22.4166 29.5208C23.1416 30.2112 23.1696 31.3584 22.4792 32.0832L15.5744 39.3332C15.2323 39.6925 14.758 39.8958 14.262 39.8958C13.7659 39.8958 13.2915 39.6925 12.9494 39.3332L10.1875 36.4332C9.49718 35.7084 9.52516 34.5612 10.25 33.8708C10.9749 33.1803 12.1222 33.2084 12.8125 33.9334L14.262 35.4551L19.8542 29.5834C20.5446 28.8584 21.6919 28.8303 22.4166 29.5208ZM26.6042 35.6666C26.6042 34.6656 27.4157 33.8541 28.4167 33.8541H40.5C41.501 33.8541 42.3125 34.6656 42.3125 35.6666C42.3125 36.6676 41.501 37.4791 40.5 37.4791H28.4167C27.4157 37.4791 26.6042 36.6676 26.6042 35.6666Z" fill="#F1ECFE"/>
</svg>