<?xml version="1.0" encoding="UTF-8" standalone="no"?>
<svg
   width="1200"
   height="420"
   id="svg2"
   version="1.1"
   xmlns="http://www.w3.org/2000/svg"
   xmlns:svg="http://www.w3.org/2000/svg"
   xmlns:rdf="http://www.w3.org/1999/02/22-rdf-syntax-ns#"
   xmlns:cc="http://creativecommons.org/ns#"
   xmlns:dc="http://purl.org/dc/elements/1.1/">
  <metadata
     id="metadata46">
    <rdf:RDF>
      <cc:Work
         rdf:about="">
        <dc:format>image/svg+xml</dc:format>
        <dc:type
           rdf:resource="http://purl.org/dc/dcmitype/StillImage" />
      </cc:Work>
    </rdf:RDF>
  </metadata>
  <defs
     id="defs4" />
  <path
     style="color:#000000;clip-rule:nonzero;display:inline;overflow:visible;visibility:visible;opacity:1;isolation:auto;mix-blend-mode:normal;color-interpolation:sRGB;color-interpolation-filters:linearRGB;solid-color:#000000;solid-opacity:1;fill:#0072e4;fill-opacity:0.25;fill-rule:evenodd;stroke:none;stroke-width:2;stroke-linecap:butt;stroke-linejoin:miter;stroke-miterlimit:4;stroke-dasharray:none;stroke-dashoffset:0;stroke-opacity:1;color-rendering:auto;image-rendering:auto;shape-rendering:auto;text-rendering:auto;enable-background:accumulate"
     d="m 46.81,235.86 c 3.45,-2.81 5.29,-4.77 22.75,-18.1 17.46,-13.33 77.14,-58.06 84.23,-62.24 7.08,-4.18 12,-6.36 20.47,-9.42 8.47,-3.05 14.53,-2.66 18.46,-1.33 3.93,1.33 8.65,4.36 11.1,8.86 2.45,4.49 2.29,6.44 2.37,15.68 0.08,9.24 -0.17,29.34 0.23,39.25 0.4,9.91 1.27,16.37 4.84,22.18 3.57,5.81 6.65,7.96 10.11,10.11 3.46,2.15 12.19,6.45 22.47,7.87 10.28,1.42 23.44,-5.05 35.18,-8.55 11.74,-3.5 23.95,-9.6 35.23,-12.26 11.28,-2.66 22.73,-3.65 32.02,-3.89 9.29,-0.24 16.64,0.76 22.03,3.01 5.39,2.25 7.52,4.74 7.57,6.52 -5.15,-1.17 -21.82,-1.11 -29.22,0 -7.4,1.11 -19.4,5.6 -28.41,9.14 -9.01,3.54 -16.96,7.45 -25.67,11.73 -8.71,4.28 -19.91,10.46 -26.75,13.6 -6.84,3.14 -8.13,3.87 -14.07,5.54 -5.94,1.67 -14.84,3.4 -21.89,3.14 -7.04,-0.25 -10.05,-0.84 -17.06,-3.23 -7.01,-2.39 -14.59,-8.16 -20.08,-14.08 -5.49,-5.92 -8.5,-12.52 -10.71,-19.56 -2.21,-7.04 -3.44,-13.7 -3.67,-21.99 -0.23,-8.29 0.48,-9.66 -1.35,-15.89 -1.83,-6.23 -3.21,-6.92 -6.74,-9.41 -3.53,-2.49 -8.06,-3.63 -12.24,-3.95 -4.18,-0.31 -8.61,0.43 -13.38,2.59 -4.76,2.17 -8.88,5.87 -14.53,10.47 -5.65,4.6 -13.13,11.68 -18.73,15.91 -5.59,4.23 -9.65,7 -14.81,10.06 -5.16,3.06 -11.26,6.95 -15.82,8.78 -4.56,1.83 -9.33,2.6 -14.13,2.9 -4.8,0.29 -7.89,0.23 -11.54,-0.55 -3.64,-0.78 -4.86,-1.37 -8.26,-2.89 z"
     id="path812-7" />
  <path
     style="color:#000000;clip-rule:nonzero;display:inline;overflow:visible;visibility:visible;opacity:1;isolation:auto;mix-blend-mode:normal;color-interpolation:sRGB;color-interpolation-filters:linearRGB;solid-color:#000000;solid-opacity:1;fill:#ffa74f;fill-opacity:0.25;fill-rule:evenodd;stroke:none;stroke-width:3.13253;stroke-linecap:butt;stroke-linejoin:miter;stroke-miterlimit:4;stroke-dasharray:none;stroke-dashoffset:0;stroke-opacity:1;color-rendering:auto;image-rendering:auto;shape-rendering:auto;text-rendering:auto;enable-background:accumulate"
     d="m 364.07,194.85 c 5.42,-4.4 8.29,-7.47 35.65,-28.35 27.35,-20.89 120.82,-90.95 131.91,-97.49 11.09,-6.55 18.79,-9.95 32.06,-14.74 13.27,-4.78 22.76,-4.17 28.91,-2.09 6.16,2.09 13.55,6.83 17.39,13.87 3.84,7.03 3.59,10.08 3.71,24.55 0.13,14.48 -0.26,45.96 0.36,61.49 0.63,15.52 1.99,25.64 7.58,34.74 5.59,9.1 10.42,12.47 15.84,15.83 5.42,3.37 19.09,10.11 35.19,12.33 16.1,2.23 36.71,-7.91 55.1,-13.39 18.39,-5.48 37.51,-15.04 55.18,-19.2 17.67,-4.17 35.6,-5.72 50.15,-6.1 14.55,-0.37 26.07,1.19 34.51,4.72 8.44,3.52 11.78,7.42 11.86,10.21 -8.07,-1.83 -34.18,-1.74 -45.77,0 -11.59,1.74 -30.39,8.77 -44.5,14.32 -14.11,5.54 -26.56,11.67 -40.2,18.37 -13.65,6.7 -31.19,16.38 -41.9,21.3 -10.72,4.92 -12.74,6.06 -22.04,8.68 -9.3,2.61 -23.24,5.32 -34.29,4.92 -11.02,-0.4 -15.74,-1.32 -26.72,-5.06 -10.98,-3.75 -22.85,-12.78 -31.45,-22.06 -8.6,-9.27 -13.31,-19.61 -16.77,-30.63 -3.46,-11.03 -5.39,-21.46 -5.75,-34.45 -0.36,-12.98 0.75,-15.13 -2.11,-24.89 -2.87,-9.76 -5.03,-10.84 -10.56,-14.74 -5.53,-3.9 -12.62,-5.69 -19.17,-6.19 -6.55,-0.48 -13.49,0.68 -20.94,4.06 -7.46,3.4 -13.91,9.19 -22.76,16.4 -8.85,7.2 -20.58,18.3 -29.34,24.93 -8.75,6.62 -15.13,10.96 -23.19,15.75 -8.08,4.8 -17.64,10.89 -24.78,13.75 -7.14,2.87 -14.63,4.08 -22.15,4.55 -7.5,0.45 -12.36,0.36 -18.06,-0.86 -5.7,-1.23 -7.61,-2.15 -12.95,-4.53 z"
     id="path812-3-5" />
  <path
     style="color:#000000;clip-rule:nonzero;display:inline;overflow:visible;visibility:visible;opacity:1;isolation:auto;mix-blend-mode:normal;color-interpolation:sRGB;color-interpolation-filters:linearRGB;solid-color:#000000;solid-opacity:1;fill:#57af00;fill-opacity:0.25;fill-rule:evenodd;stroke:none;stroke-width:2;stroke-linecap:butt;stroke-linejoin:miter;stroke-miterlimit:4;stroke-dasharray:none;stroke-dashoffset:0;stroke-opacity:1;color-rendering:auto;image-rendering:auto;shape-rendering:auto;text-rendering:auto;enable-background:accumulate"
     d="m 855.76,217.4 c 3.46,-2.81 5.29,-4.77 22.76,-18.1 17.46,-13.33 77.14,-58.07 84.22,-62.25 7.08,-4.18 11.96,-6.35 20.46,-9.41 8.5,-3.05 14.5,-2.66 18.5,-1.33 3.9,1.33 8.6,4.36 11.1,8.85 2.4,4.49 2.3,6.44 2.3,15.69 0.1,9.24 -0.1,29.34 0.3,39.25 0.4,9.91 1.2,16.37 4.8,22.18 3.6,5.81 6.7,7.96 10.1,10.11 3.5,2.15 12.2,6.45 22.5,7.87 10.3,1.42 23.5,-5.05 35.2,-8.55 11.7,-3.5 23.9,-9.6 35.2,-12.26 11.3,-2.66 22.8,-3.65 32,-3.89 9.3,-0.24 16.7,0.76 22.1,3.01 5.4,2.25 7.5,4.74 7.5,6.52 -5.1,-1.17 -21.8,-1.11 -29.2,0 -7.4,1.11 -19.4,5.6 -28.4,9.14 -9,3.54 -16.9,7.45 -25.7,11.73 -8.7,4.28 -19.9,10.46 -26.7,13.6 -6.8,3.14 -8.1,3.87 -14.1,5.54 -5.9,1.67 -14.8,3.4 -21.9,3.14 -7,-0.25 -10,-0.84 -17.1,-3.23 -7,-2.39 -14.5,-8.16 -20,-14.08 -5.5,-5.92 -8.5,-12.52 -10.7,-19.56 -2.3,-7.04 -3.5,-13.7 -3.7,-21.99 -0.2,-8.29 0.5,-9.66 -1.4,-15.89 -1.8,-6.23 -3.2,-6.92 -6.7,-9.41 -3.5,-2.49 -8.06,-3.63 -12.24,-3.95 -4.18,-0.31 -8.61,0.43 -13.37,2.59 -4.76,2.17 -8.88,5.87 -14.53,10.47 -5.65,4.6 -13.14,11.68 -18.73,15.91 -5.59,4.23 -9.66,7 -14.81,10.06 -5.16,3.06 -11.26,6.95 -15.82,8.78 -4.56,1.83 -9.34,2.6 -14.14,2.9 -4.79,0.29 -7.89,0.23 -11.53,-0.55 -3.64,-0.78 -4.86,-1.37 -8.27,-2.89 z"
     id="path812-3-6-3" />
  <path
     style="color:#000000;clip-rule:nonzero;display:inline;overflow:visible;visibility:visible;opacity:1;isolation:auto;mix-blend-mode:normal;color-interpolation:sRGB;color-interpolation-filters:linearRGB;solid-color:#000000;solid-opacity:1;fill:#0072e4;fill-opacity:1;fill-rule:evenodd;stroke:none;stroke-width:2;stroke-linecap:butt;stroke-linejoin:miter;stroke-miterlimit:4;stroke-dasharray:none;stroke-dashoffset:0;stroke-opacity:1;color-rendering:auto;image-rendering:auto;shape-rendering:auto;text-rendering:auto;enable-background:accumulate"
     d="m 26.644,219.02 c 3.452,-2.81 5.287,-4.77 22.751,-18.1 17.464,-13.33 77.145,-58.06 84.225,-62.24 7.08,-4.18 12,-6.35 20.47,-9.41 8.47,-3.05 14.53,-2.66 18.46,-1.33 3.93,1.33 8.65,4.36 11.1,8.85 2.45,4.49 2.29,6.44 2.37,15.68 0.08,9.24 -0.17,29.34 0.23,39.25 0.4,9.91 1.27,16.37 4.84,22.18 3.57,5.81 6.65,7.96 10.11,10.11 3.46,2.15 12.19,6.45 22.47,7.87 10.28,1.42 23.44,-5.05 35.18,-8.55 11.74,-3.5 23.95,-9.6 35.23,-12.26 11.28,-2.66 22.73,-3.65 32.02,-3.89 9.29,-0.24 16.64,0.76 22.03,3.01 5.39,2.25 7.52,4.74 7.57,6.52 -5.15,-1.17 -21.82,-1.11 -29.22,0 -7.4,1.11 -19.4,5.6 -28.41,9.14 -9.01,3.54 -16.96,7.45 -25.67,11.73 -8.71,4.28 -19.91,10.46 -26.75,13.6 -6.84,3.14 -8.13,3.87 -14.07,5.54 -5.94,1.67 -14.84,3.4 -21.89,3.14 -7.04,-0.25 -10.05,-0.84 -17.06,-3.23 -7.01,-2.39 -14.59,-8.16 -20.08,-14.08 -5.49,-5.92 -8.5,-12.52 -10.71,-19.56 -2.21,-7.04 -3.44,-13.7 -3.67,-21.99 -0.23,-8.29 0.48,-9.66 -1.35,-15.89 -1.83,-6.23 -3.21,-6.92 -6.74,-9.41 -3.53,-2.49 -8.06,-3.63 -12.24,-3.95 -4.18,-0.31 -8.61,0.43 -13.37,2.59 -4.76,2.17 -8.88,5.87 -14.53,10.47 -5.65,4.6 -13.136,11.68 -18.73,15.91 -5.594,4.23 -9.659,7 -14.815,10.06 -5.156,3.06 -11.255,6.95 -15.817,8.78 -4.562,1.83 -9.337,2.6 -14.133,2.9 -4.797,0.29 -7.893,0.23 -11.535,-0.55 -3.642,-0.78 -4.864,-1.37 -8.266,-2.89 z"
     id="path812" />
  <path
     style="color:#000000;clip-rule:nonzero;display:inline;overflow:visible;visibility:visible;opacity:1;isolation:auto;mix-blend-mode:normal;color-interpolation:sRGB;color-interpolation-filters:linearRGB;solid-color:#000000;solid-opacity:1;fill:#ffa74f;fill-opacity:1;fill-rule:evenodd;stroke:none;stroke-width:3.13253;stroke-linecap:butt;stroke-linejoin:miter;stroke-miterlimit:4;stroke-dasharray:none;stroke-dashoffset:0;stroke-opacity:1;color-rendering:auto;image-rendering:auto;shape-rendering:auto;text-rendering:auto;enable-background:accumulate"
     d="m 343.9,178.01 c 5.42,-4.4 8.29,-7.47 35.65,-28.35 27.35,-20.88 120.82,-90.94 131.91,-97.48 11.09,-6.55 18.79,-9.95 32.06,-14.74 13.27,-4.78 22.76,-4.17 28.91,-2.09 6.16,2.09 13.55,6.83 17.39,13.87 3.84,7.03 3.59,10.08 3.71,24.55 0.13,14.48 -0.26,45.96 0.36,61.48 0.63,15.52 1.99,25.64 7.58,34.74 5.59,9.1 10.42,12.47 15.84,15.83 5.42,3.37 19.09,10.11 35.19,12.33 16.1,2.23 36.71,-7.91 55.1,-13.39 18.39,-5.48 37.51,-15.04 55.18,-19.2 17.67,-4.17 35.6,-5.72 50.15,-6.1 14.55,-0.37 26.07,1.19 34.51,4.72 8.44,3.52 11.78,7.42 11.86,10.21 -8.07,-1.83 -34.18,-1.74 -45.77,0 -11.59,1.74 -30.39,8.77 -44.5,14.32 -14.11,5.54 -26.56,11.67 -40.2,18.37 -13.65,6.7 -31.19,16.38 -41.9,21.3 -10.72,4.92 -12.74,6.06 -22.04,8.68 -9.3,2.61 -23.24,5.32 -34.29,4.92 -11.02,-0.4 -15.74,-1.32 -26.72,-5.06 -10.98,-3.75 -22.85,-12.78 -31.45,-22.06 -8.6,-9.27 -13.31,-19.61 -16.77,-30.63 -3.46,-11.03 -5.39,-21.46 -5.75,-34.45 -0.36,-12.98 0.75,-15.13 -2.11,-24.88 -2.87,-9.76 -5.03,-10.84 -10.56,-14.74 -5.53,-3.9 -12.62,-5.69 -19.17,-6.19 -6.55,-0.48 -13.49,0.68 -20.94,4.06 -7.46,3.4 -13.91,9.19 -22.76,16.4 -8.85,7.2 -20.58,18.29 -29.34,24.92 -8.75,6.62 -15.13,10.96 -23.19,15.75 -8.08,4.8 -17.64,10.89 -24.78,13.75 -7.14,2.87 -14.63,4.08 -22.15,4.55 -7.5,0.45 -12.36,0.36 -18.06,-0.86 -5.7,-1.23 -7.61,-2.15 -12.95,-4.53 z"
     id="path812-3" />
  <path
     style="color:#000000;clip-rule:nonzero;display:inline;overflow:visible;visibility:visible;opacity:1;isolation:auto;mix-blend-mode:normal;color-interpolation:sRGB;color-interpolation-filters:linearRGB;solid-color:#000000;solid-opacity:1;fill:#57af00;fill-opacity:1;fill-rule:evenodd;stroke:none;stroke-width:2;stroke-linecap:butt;stroke-linejoin:miter;stroke-miterlimit:4;stroke-dasharray:none;stroke-dashoffset:0;stroke-opacity:1;color-rendering:auto;image-rendering:auto;shape-rendering:auto;text-rendering:auto;enable-background:accumulate"
     d="m 835.59,200.56 c 3.46,-2.81 5.29,-4.77 22.76,-18.1 17.46,-13.33 77.14,-58.06 84.22,-62.24 7.08,-4.18 12,-6.35 20.47,-9.41 8.47,-3.05 14.53,-2.66 18.46,-1.33 3.93,1.33 8.65,4.36 11.1,8.85 2.45,4.49 2.29,6.44 2.37,15.68 0.08,9.24 -0.17,29.34 0.23,39.25 0.4,9.91 1.27,16.37 4.84,22.18 3.57,5.81 6.66,7.96 10.06,10.11 3.5,2.15 12.2,6.45 22.5,7.87 10.3,1.42 23.5,-5.05 35.2,-8.55 11.7,-3.5 23.9,-9.6 35.2,-12.26 11.3,-2.66 22.8,-3.65 32,-3.89 9.3,-0.24 16.7,0.76 22.1,3.01 5.4,2.25 7.5,4.74 7.5,6.52 -5.1,-1.17 -21.8,-1.11 -29.2,0 -7.4,1.11 -19.4,5.6 -28.4,9.14 -9,3.54 -16.9,7.45 -25.7,11.73 -8.7,4.28 -19.9,10.46 -26.7,13.6 -6.8,3.14 -8.1,3.87 -14.1,5.54 -5.9,1.67 -14.8,3.4 -21.9,3.14 -7,-0.25 -10,-0.84 -17.02,-3.23 -7.01,-2.39 -14.59,-8.16 -20.08,-14.08 -5.49,-5.92 -8.5,-12.52 -10.71,-19.56 -2.21,-7.04 -3.44,-13.7 -3.67,-21.99 -0.23,-8.29 0.48,-9.66 -1.35,-15.89 -1.83,-6.23 -3.21,-6.92 -6.74,-9.41 -3.53,-2.49 -8.06,-3.63 -12.24,-3.95 -4.18,-0.31 -8.61,0.43 -13.37,2.59 -4.76,2.17 -8.88,5.87 -14.53,10.47 -5.65,4.6 -13.14,11.68 -18.73,15.91 -5.59,4.23 -9.66,7 -14.81,10.06 -5.16,3.06 -11.26,6.95 -15.82,8.78 -4.56,1.83 -9.34,2.6 -14.14,2.9 -4.79,0.29 -7.89,0.23 -11.53,-0.55 -3.64,-0.78 -4.86,-1.37 -8.27,-2.89 z"
     id="path812-3-6" />
  <text
     id="text1"
     style="font-weight:bold;font-size:122.667px;font-family:Arial;-inkscape-font-specification:'Arial Bold';letter-spacing:0px;fill:#0072e4;stroke-width:10;stroke-linejoin:round;stroke-dasharray:40, 30"
     y="380"
     x="20">institut sa palomera</text>
</svg>
