<svg xmlns="http://www.w3.org/2000/svg" width="36" height="36" viewBox="0 0 36 36" fill="none">
<path d="M23.0986 23.0544L33.2281 33.197L23.0986 23.0544ZM26.5269 14.7686C26.5269 21.2454 21.2765 26.4958 14.7998 26.4958C8.32306 26.4958 3.07263 21.2454 3.07263 14.7686C3.07263 8.29193 8.32306 3.0415 14.7998 3.0415C21.2765 3.0415 26.5269 8.29193 26.5269 14.7686Z" fill="rgba(241, 236, 254, 0);"/>
<path d="M23.0986 23.0544L33.2281 33.197M26.5269 14.7686C26.5269 21.2454 21.2765 26.4958 14.7998 26.4958C8.32306 26.4958 3.07263 21.2454 3.07263 14.7686C3.07263 8.29193 8.32306 3.0415 14.7998 3.0415C21.2765 3.0415 26.5269 8.29193 26.5269 14.7686Z" stroke="#F1ECFE" stroke-width="5" stroke-linecap="round" stroke-linejoin="round"/>
</svg>