<svg width="70" height="70" viewBox="0 0 70 70" fill="none" xmlns="http://www.w3.org/2000/svg">
<path id="Vector" fill-rule="evenodd" clip-rule="evenodd" d="M26.8278 12.2534C34.7895 12.2534 41.2736 18.7293 41.2736 26.69V30.8148C41.2736 35.2613 39.2099 39.1922 36.036 41.8444C39.4699 42.3518 42.8709 43.119 46.1893 44.1996C50.6551 45.6516 53.6557 49.8753 53.6557 54.7054V62.0103L52.6775 62.6166C47.2624 65.9825 38.3762 70 26.8278 70C20.4511 70 10.7848 68.7172 0.974047 62.6167L-4.00796e-06 62.0103V55.1055C-4.00796e-06 49.9784 3.25647 45.5154 8.09787 43.9934C11.214 43.0199 14.3921 42.2981 17.5949 41.8238C14.4375 39.1716 12.3821 35.2489 12.3821 30.8148V26.69C12.3821 18.7293 18.862 12.2534 26.8278 12.2534ZM43.1722 0C51.1339 0 57.6179 6.47587 57.6179 14.4367V18.5614C57.6179 23.0079 55.5542 26.9429 52.3803 29.591C55.8143 30.0983 59.2111 30.8697 62.5336 31.9462C66.9994 33.4064 70 37.626 70 42.4561V49.761L69.0259 50.3674C66.1945 52.1287 62.3933 54.0508 57.783 55.4986V54.7066C57.783 48.0823 53.6391 42.2829 47.4688 40.2782C46.1259 39.8407 44.7685 39.4486 43.3992 39.1027C44.7034 36.5577 45.4009 33.7281 45.4009 30.8161V26.6913C45.4009 17.5591 38.76 9.99428 30.0637 8.45574C32.3502 3.4813 37.3444 0 43.1722 0Z" fill="#F1ECFE"/>
</svg>
