<svg width="43" height="29" viewBox="0 0 43 29" fill="none" xmlns="http://www.w3.org/2000/svg">
<path fill-rule="evenodd" clip-rule="evenodd" d="M28.757 4.32442C25.8425 4.32442 23.4796 6.6872 23.4796 9.60183C23.4796 12.5165 25.8425 14.8792 28.757 14.8792C31.6717 14.8792 34.0344 12.5165 34.0344 9.60183C34.0344 6.6872 31.6717 4.32442 28.757 4.32442ZM19.9613 9.60183C19.9613 4.74412 23.8993 0.806152 28.757 0.806152C33.6147 0.806152 37.5527 4.74412 37.5527 9.60183C37.5527 11.9227 36.6538 14.0336 35.1852 15.6054C38.4236 16.6602 40.926 18.7481 42.5247 21.0941C43.0718 21.8969 42.8644 22.9913 42.0615 23.5384C41.2588 24.0855 40.1643 23.8781 39.6172 23.0752C37.9008 20.5565 34.7694 18.3975 30.5161 18.3975C23.7716 18.3975 19.9613 23.8054 19.9613 27.1932C19.9613 28.1647 19.1738 28.9523 18.2022 28.9523C17.2307 28.9523 16.4431 28.1647 16.4431 27.1932C16.4431 25.9759 16.7218 24.6776 17.2537 23.3978C17.1182 23.3109 16.9924 23.204 16.8809 23.0771C15.4369 21.4341 13.196 20.1566 10.2861 20.1566C7.37621 20.1566 5.13532 21.4341 3.69133 23.0771C3.04997 23.8068 1.93844 23.8784 1.20869 23.2371C0.478938 22.5957 0.407292 21.4843 1.04866 20.7544C2.03404 19.6333 3.28092 18.6374 4.75756 17.9062C3.28453 16.4686 2.36999 14.4614 2.36999 12.2405C2.36999 7.86859 5.91416 4.32442 10.2861 4.32442C14.658 4.32442 18.2022 7.86859 18.2022 12.2405C18.2022 14.4614 17.2877 16.4686 15.8147 17.9062C17.0855 18.5356 18.1861 19.3608 19.0964 20.2933C20.2287 18.8653 21.7004 17.5851 23.4659 16.6287C21.3373 15.0233 19.9613 12.4733 19.9613 9.60183ZM5.88826 12.2405C5.88826 9.81167 7.85724 7.84269 10.2861 7.84269C12.715 7.84269 14.6839 9.81167 14.6839 12.2405C14.6839 14.6694 12.715 16.6384 10.2861 16.6384C7.85724 16.6384 5.88826 14.6694 5.88826 12.2405Z" fill="#F1ECFE"/>
</svg>
