<svg xmlns="http://www.w3.org/2000/svg" width="47" height="47" viewBox="0 0 47 47" fill="none">
<path fill-rule="evenodd" clip-rule="evenodd" d="M40.7598 17.7467H29.2532V6.2402C29.2532 3.06152 26.6772 0.486938 23.5 0.486938C20.3227 0.486938 17.7467 3.06152 17.7467 6.2402V17.7467H6.2402C3.06296 17.7467 0.486938 20.3213 0.486938 23.5C0.486938 26.6787 3.06296 29.2532 6.2402 29.2532H17.7467V40.7598C17.7467 43.9384 20.3227 46.513 23.5 46.513C26.6772 46.513 29.2532 43.9384 29.2532 40.7598V29.2532H40.7598C43.937 29.2532 46.513 26.6787 46.513 23.5C46.513 20.3213 43.937 17.7467 40.7598 17.7467Z" fill="black"/>
</svg>