<svg xmlns="http://www.w3.org/2000/svg" width="36" height="36" viewBox="0 0 52 52" fill="none">
    <g clip-path="url(#clip0_2016_618)">
        <path d="M50.1005 16.2189C48.8333 13.0829 46.9286 10.1426 44.3928 7.60723C41.8574 5.07152 38.9171 3.16672 35.7811 1.89952C32.6446 0.631922 29.3126 0 25.9819 0C22.656 0 19.3299 0.634664 16.1999 1.90369C13.0704 3.1722 10.1372 5.0767 7.60703 7.60723C5.0766 10.1373 3.172 13.0705 1.90348 16.2001C0.634664 19.3299 0 22.6559 0 25.9818C0 29.3125 0.631922 32.6445 1.89932 35.7811C3.16652 38.9171 5.07122 41.8575 7.60703 44.3929C10.1424 46.9286 13.0827 48.8334 16.2187 50.1006C19.3552 51.3681 22.6872 51.9999 26.0179 51.9999C29.3438 51.9999 32.6699 51.3652 35.7999 50.0963C38.9294 48.8278 41.8626 46.9233 44.3928 44.3928C46.9233 41.8626 48.8279 38.9294 50.0964 35.7999C51.3653 32.67 52 29.344 52.0001 26.0179C52 22.6874 51.3681 19.3553 50.1005 16.2189ZM46.8826 34.4968C45.7833 37.2069 44.1382 39.7424 41.9404 41.9405C39.7423 44.1384 37.2068 45.7834 34.4968 46.8825C31.7872 47.9812 28.903 48.5319 26.018 48.5319C23.1258 48.5319 20.2343 47.9829 17.5184 46.8852C14.8022 45.787 12.2615 44.1423 10.0596 41.9406C7.85779 39.7386 6.21298 37.198 5.11499 34.4817C4.0173 31.7658 3.46826 28.8742 3.46836 25.982C3.46836 23.097 4.01923 20.2129 5.11784 17.5033C6.21684 14.7933 7.86185 12.2578 10.0598 10.0597C12.2579 7.86185 14.7934 6.21684 17.5035 5.11773C20.2131 4.01903 23.0973 3.46826 25.9823 3.46826C28.8745 3.46826 31.766 4.0172 34.4819 5.11499C37.1981 6.21319 39.7388 7.85789 41.9407 10.0596C44.1425 12.2616 45.7872 14.8022 46.8853 17.5184C47.983 20.2343 48.532 23.1258 48.532 26.018C48.532 28.9029 47.9813 31.787 46.8826 34.4968Z" fill="#F1ECFE"/>
        <path d="M36.7982 15.202C36.1356 14.5394 35.0612 14.5394 34.3985 15.202L15.2019 34.3987C14.5393 35.0614 14.5393 36.1356 15.2019 36.7983C15.8646 37.461 16.9388 37.461 17.6015 36.7983L36.7983 17.6015C37.4607 16.9389 37.4607 15.8645 36.7982 15.202Z" fill="#F1ECFE"/>
        <path d="M25.0615 13.9214C24.8129 13.3075 24.4373 12.7301 23.9434 12.2365C23.4499 11.7426 22.8726 11.3672 22.2586 11.1184C21.6444 10.8695 20.9939 10.7456 20.344 10.7456C19.6941 10.7456 19.0435 10.8695 18.4293 11.1184C17.8155 11.3671 17.2381 11.7426 16.7445 12.2365C16.2506 12.7299 15.8751 13.3074 15.6264 13.9214C15.3774 14.5356 15.2535 15.1861 15.2535 15.836C15.2535 16.4859 15.3774 17.1364 15.6264 17.7507C15.875 18.3645 16.2507 18.9419 16.7445 19.4355C17.238 19.9294 17.8154 20.3049 18.4293 20.5536C19.0435 20.8025 19.6941 20.9264 20.344 20.9264C20.9939 20.9264 21.6444 20.8025 22.2586 20.5536C22.8725 20.305 23.4498 19.9294 23.9434 19.4355C24.4373 18.942 24.8128 18.3646 25.0615 17.7507C25.3105 17.1364 25.4344 16.4859 25.4344 15.836C25.4344 15.1861 25.3106 14.5356 25.0615 13.9214ZM21.9167 16.4754C21.834 16.6785 21.7126 16.8667 21.5438 17.0359C21.3747 17.2047 21.1865 17.326 20.9834 17.4087C20.7806 17.4911 20.5626 17.5328 20.3441 17.5328C20.1254 17.5328 19.9075 17.491 19.7047 17.4087C19.5016 17.326 19.3134 17.2047 19.1443 17.0359C18.9755 16.8668 18.8541 16.6786 18.7715 16.4755C18.6891 16.2726 18.6474 16.0547 18.6474 15.8361C18.6473 15.6175 18.6891 15.3995 18.7714 15.1967C18.854 14.9936 18.9754 14.8054 19.1442 14.6363C19.3134 14.4675 19.5015 14.346 19.7047 14.2634C19.9075 14.1811 20.1255 14.1393 20.3441 14.1393C20.5627 14.1393 20.7806 14.1812 20.9834 14.2634C21.1865 14.3461 21.3747 14.4675 21.5438 14.6363C21.7126 14.8054 21.834 14.9936 21.9167 15.1967C21.999 15.3995 22.0408 15.6175 22.0408 15.836C22.0408 16.0546 21.9989 16.2725 21.9167 16.4754Z" fill="#F1ECFE"/>
        <path d="M37.5045 33.135C37.2559 32.5211 36.8802 31.9438 36.3864 31.4502C35.893 30.9563 35.3155 30.5808 34.7016 30.3321C34.0874 30.0831 33.4368 29.9592 32.7869 29.9592C32.137 29.9592 31.4865 30.0831 30.8723 30.3321C30.2584 30.5807 29.6811 30.9563 29.1875 31.4502C28.6936 31.9436 28.3181 32.521 28.0694 33.135C27.8204 33.7492 27.6965 34.3997 27.6965 35.0496C27.6965 35.6995 27.8204 36.35 28.0694 36.9643C28.318 37.5781 28.6936 38.1555 29.1875 38.6491C29.681 39.143 30.2583 39.5185 30.8723 39.7672C31.4865 40.0162 32.137 40.1401 32.7869 40.1401C33.4368 40.1401 34.0874 40.0162 34.7016 39.7672C35.3154 39.5186 35.8928 39.143 36.3864 38.6491C36.8803 38.1556 37.2558 37.5782 37.5045 36.9643C37.7535 36.35 37.8774 35.6995 37.8774 35.0496C37.8774 34.3997 37.7536 33.7492 37.5045 33.135ZM34.3597 35.6888C34.2771 35.8919 34.1557 36.0801 33.9869 36.2492C33.8178 36.418 33.6296 36.5394 33.4265 36.622C33.2237 36.7044 33.0057 36.7461 32.7871 36.7461C32.5685 36.7461 32.3506 36.7043 32.1478 36.622C31.9447 36.5394 31.7565 36.418 31.5874 36.2492C31.4186 36.0801 31.2972 35.8919 31.2146 35.6888C31.1322 35.486 31.0903 35.268 31.0904 35.0494C31.0904 34.8308 31.1323 34.6129 31.2146 34.4101C31.2972 34.207 31.4186 34.0188 31.5874 33.8497C31.7565 33.6809 31.9447 33.5595 32.1479 33.4768C32.3507 33.3945 32.5687 33.3527 32.7873 33.3527C33.0059 33.3527 33.2238 33.3946 33.4266 33.4768C33.6295 33.5595 33.8176 33.6809 33.9869 33.8497C34.1557 34.0188 34.2771 34.207 34.3597 34.4101C34.4421 34.6129 34.4839 34.8309 34.4839 35.0494C34.4839 35.2681 34.442 35.4861 34.3597 35.6888Z" fill="#F1ECFE"/>
    </g>
    <defs>
        <clipPath id="clip0_2016_618">
            <rect width="52" height="52" fill="white"/>
        </clipPath>
    </defs>
</svg>