<svg xmlns="http://www.w3.org/2000/svg" width="38" height="38" viewBox="0 0 38 38" fill="none">
<path d="M19.0001 0.599976C8.85431 0.599976 0.600098 8.85419 0.600098 19C0.600098 29.1458 8.85431 37.4 19.0001 37.4C29.1459 37.4 37.4001 29.1458 37.4001 19C37.4001 8.85419 29.1456 0.599976 19.0001 0.599976ZM19.0001 33.5246C10.991 33.5246 4.4752 27.009 4.4752 19C4.4752 10.9909 10.991 4.47507 19.0001 4.47507C27.0091 4.47507 33.525 10.9909 33.525 19C33.525 27.009 27.0091 33.5246 19.0001 33.5246Z" fill="#F1ECFE"/>
<path d="M26.6725 17.6047H19.1292V11.0707C19.1292 10.0004 18.262 9.13318 17.1917 9.13318C16.1214 9.13318 15.2542 10.0004 15.2542 11.0707V19.5422C15.2542 20.6125 16.1214 21.4798 17.1917 21.4798H26.6725C27.7428 21.4798 28.6101 20.6125 28.6101 19.5422C28.6101 18.4719 27.7426 17.6047 26.6725 17.6047Z" fill="#F1ECFE"/>
</svg>