<svg width="32" height="24" viewBox="0 0 32 24" fill="none" xmlns="http://www.w3.org/2000/svg">
<path fill-rule="evenodd" clip-rule="evenodd" d="M1.99992 24C1.99992 24 0 24 0 22C0 20 1.99992 14 11.9995 14C21.9991 14 23.9991 20 23.9991 22C23.9991 24 21.9991 24 21.9991 24H1.99992ZM11.9995 12C13.5908 12 15.1168 11.3679 16.242 10.2426C17.3672 9.11742 17.9993 7.5913 17.9993 6C17.9993 4.4087 17.3672 2.88258 16.242 1.75736C15.1168 0.632141 13.5908 0 11.9995 0C10.4083 0 8.88223 0.632141 7.75705 1.75736C6.63188 2.88258 5.99976 4.4087 5.99976 6C5.99976 7.5913 6.63188 9.11742 7.75705 10.2426C8.88223 11.3679 10.4083 12 11.9995 12ZM24.291 6.292C24.3839 6.19887 24.4943 6.12499 24.6158 6.07457C24.7372 6.02416 24.8675 5.99821 24.999 5.99821C25.1305 5.99821 25.2608 6.02416 25.3823 6.07457C25.5037 6.12499 25.6141 6.19887 25.707 6.292L27.9989 8.586L30.2908 6.292C30.4786 6.10423 30.7332 5.99874 30.9988 5.99874C31.2643 5.99874 31.519 6.10423 31.7067 6.292C31.8945 6.47977 32 6.73445 32 7C32 7.26555 31.8945 7.52023 31.7067 7.708L29.4128 10L31.7067 12.292C31.8945 12.4798 32 12.7344 32 13C32 13.2656 31.8945 13.5202 31.7067 13.708C31.519 13.8958 31.2643 14.0013 30.9988 14.0013C30.7332 14.0013 30.4786 13.8958 30.2908 13.708L27.9989 11.414L25.707 13.708C25.5192 13.8958 25.2646 14.0013 24.999 14.0013C24.7335 14.0013 24.4788 13.8958 24.291 13.708C24.1033 13.5202 23.9978 13.2656 23.9978 13C23.9978 12.7344 24.1033 12.4798 24.291 12.292L26.585 10L24.291 7.708C24.1979 7.61511 24.124 7.50476 24.0736 7.38327C24.0232 7.26178 23.9973 7.13153 23.9973 7C23.9973 6.86847 24.0232 6.73822 24.0736 6.61673C24.124 6.49524 24.1979 6.38489 24.291 6.292Z" fill="#F1ECFE"/>
</svg>
