<svg width="42" height="48" viewBox="0 0 42 48" fill="none" xmlns="http://www.w3.org/2000/svg">
<path d="M34.5325 5.31895L19.4011 0.703067C18.9128 0.554321 18.3929 0.47876 17.8563 0.47876C17.3195 0.47876 16.7996 0.554321 16.3113 0.703067L1.17962 5.31895C0.914699 5.40049 0.743652 5.58786 0.743652 5.79791C0.743652 6.00789 0.914699 6.19533 1.17978 6.27687L8.18418 8.41342V14.3317C8.18594 17.3917 9.22625 20.3309 11.1134 22.6067C12.0203 23.699 13.0641 24.5665 14.2158 25.1841C15.4374 25.8404 16.704 26.173 17.9804 26.173C19.256 26.173 20.5228 25.8404 21.7451 25.1841C23.4768 24.2535 24.9667 22.759 26.0539 20.8627C27.1803 18.8945 27.7759 16.636 27.7764 14.3317V8.33786L31.2437 7.28001V12.1993C30.7685 12.2594 30.4002 12.6664 30.4002 13.1572C30.4002 13.5844 30.6798 13.9545 31.0801 14.0777L30.3447 18.9297C30.3267 19.0505 30.3618 19.1725 30.4414 19.2658C30.5212 19.3581 30.6371 19.4116 30.7593 19.4116H33.539C33.661 19.4116 33.7769 19.358 33.8569 19.2652C33.9363 19.173 33.9715 19.0504 33.9536 18.9291L33.2182 14.0777C33.6185 13.9545 33.8981 13.5844 33.8981 13.1572C33.8981 12.6664 33.5295 12.2594 33.0543 12.1993V6.72778L34.5327 6.27679C34.7976 6.19526 34.9688 6.00727 34.9688 5.79783C34.9688 5.58847 34.7976 5.40041 34.5325 5.31895ZM17.9804 23.3057C17.1824 23.3057 16.3715 23.0879 15.5704 22.6578C14.3294 21.995 13.2018 20.852 12.3948 19.4383C12.0228 18.7886 11.7208 18.0818 11.496 17.3351C16.1612 16.5093 19.0452 13.551 20.672 11.1301C21.4569 12.7222 22.7918 14.713 24.8277 15.6245C24.5885 17.5391 23.8139 19.3652 22.6411 20.7752C21.9809 21.5725 21.2025 22.2234 20.39 22.6583C19.5886 23.0879 18.7777 23.3057 17.9804 23.3057Z" fill="black"/>
<path d="M26.8825 24.5594L26.8056 24.5112L18.335 31.9657L9.86431 24.5111L9.78737 24.5593C6.96318 26.3246 3.96167 31.1231 3.96167 36.5392V36.6123L4.0265 36.6468C4.08436 36.6779 9.91902 39.7153 18.335 39.7153C26.7509 39.7153 32.5857 36.6779 32.6435 36.647L32.7083 36.6125V36.5393C32.7084 31.1231 29.7067 26.3246 26.8825 24.5594Z" fill="black"/>
<path fill-rule="evenodd" clip-rule="evenodd" d="M38.6924 34.3079H33.4635V29.079C33.4635 27.6346 32.2929 26.4646 30.8491 26.4646C29.4053 26.4646 28.2347 27.6346 28.2347 29.079V34.3079H23.0058C21.562 34.3079 20.3914 35.4778 20.3914 36.9223C20.3914 38.3668 21.562 39.5367 23.0058 39.5367H28.2347V44.7656C28.2347 46.21 29.4053 47.38 30.8491 47.38C32.2929 47.38 33.4635 46.21 33.4635 44.7656V39.5367H38.6924C40.1362 39.5367 41.3068 38.3668 41.3068 36.9223C41.3068 35.4778 40.1362 34.3079 38.6924 34.3079Z" fill="#222222"/>
</svg>
