<svg xmlns="http://www.w3.org/2000/svg" width="35" height="35" viewBox="0 0 35 35" fill="none">
<path d="M8.75 0H20.7812V2.1875H8.75C8.16984 2.1875 7.61344 2.41797 7.2032 2.8282C6.79297 3.23844 6.5625 3.79484 6.5625 4.375V30.625C6.5625 31.2052 6.79297 31.7616 7.2032 32.1718C7.61344 32.582 8.16984 32.8125 8.75 32.8125H26.25C26.8302 32.8125 27.3866 32.582 27.7968 32.1718C28.207 31.7616 28.4375 31.2052 28.4375 30.625V9.84375H30.625V30.625C30.625 31.7853 30.1641 32.8981 29.3436 33.7186C28.5231 34.5391 27.4103 35 26.25 35H8.75C7.58968 35 6.47688 34.5391 5.65641 33.7186C4.83594 32.8981 4.375 31.7853 4.375 30.625V4.375C4.375 3.21468 4.83594 2.10188 5.65641 1.28141C6.47688 0.460936 7.58968 0 8.75 0V0Z" fill="#F1ECFE"/>
<path d="M20.7812 6.5625V0L30.625 9.84375H24.0625C23.1923 9.84375 22.3577 9.49805 21.7423 8.88269C21.127 8.26734 20.7813 7.43274 20.7812 6.5625Z" fill="#F1ECFE"/>
<path fill-rule="evenodd" clip-rule="evenodd" d="M17.5013 26.25C17.7914 26.25 18.0696 26.1348 18.2747 25.9297C18.4798 25.7245 18.5951 25.4463 18.5951 25.1563V16.8591L21.1019 19.3681C21.3073 19.5735 21.5859 19.6889 21.8763 19.6889C22.1668 19.6889 22.4453 19.5735 22.6507 19.3681C22.8561 19.1628 22.9715 18.8842 22.9715 18.5938C22.9715 18.3033 22.8561 18.0248 22.6507 17.8194L18.2757 13.4444C18.1741 13.3425 18.0534 13.2617 17.9205 13.2066C17.7876 13.1514 17.6452 13.123 17.5013 13.123C17.3575 13.123 17.215 13.1514 17.0821 13.2066C16.9492 13.2617 16.8285 13.3425 16.7269 13.4444L12.3519 17.8194C12.1466 18.0248 12.0312 18.3033 12.0312 18.5938C12.0312 18.8842 12.1466 19.1628 12.3519 19.3681C12.5573 19.5735 12.8359 19.6889 13.1263 19.6889C13.4168 19.6889 13.6953 19.5735 13.9007 19.3681L16.4076 16.8591V25.1563C16.4076 25.4463 16.5228 25.7245 16.7279 25.9297C16.933 26.1348 17.2112 26.25 17.5013 26.25Z" fill="#F1ECFE"/>
</svg>